<svg id="svg" version="1.1" xmlns="http://www.w3.org/2000/svg" xmlns:xlink="http://www.w3.org/1999/xlink" width="400" height="127.33564013840831" viewBox="0, 0, 400,127.33564013840831"><g id="svgg"><path id="path0" d="M38.000 0.167 C 38.000 0.258,38.059 0.333,38.131 0.333 C 38.203 0.333,38.384 0.541,38.534 0.794 C 38.684 1.048,39.019 1.496,39.278 1.790 C 39.743 2.316,40.052 2.687,41.256 4.167 C 42.377 5.544,42.912 6.197,43.500 6.908 C 43.821 7.296,44.308 7.898,44.583 8.247 C 44.858 8.595,45.196 9.003,45.333 9.154 C 45.471 9.304,45.807 9.725,46.081 10.089 C 46.354 10.452,46.703 10.900,46.855 11.083 C 47.008 11.267,47.625 12.017,48.226 12.750 C 49.608 14.436,50.156 15.099,50.617 15.647 C 50.935 16.025,52.440 17.883,53.391 19.071 C 53.699 19.456,53.391 21.203,52.960 21.512 C 52.887 21.564,52.682 22.115,52.504 22.736 C 52.326 23.357,52.110 23.952,52.024 24.058 C 51.937 24.163,51.659 24.925,51.405 25.750 C 51.150 26.575,50.889 27.287,50.823 27.333 C 50.758 27.379,50.538 27.979,50.335 28.667 C 50.131 29.354,49.898 29.999,49.817 30.100 C 49.646 30.310,48.833 32.808,48.833 33.123 C 48.833 33.239,48.773 33.333,48.699 33.333 C 48.626 33.333,48.392 33.877,48.180 34.542 C 47.968 35.206,47.738 35.825,47.669 35.917 C 47.600 36.008,47.373 36.646,47.164 37.333 C 46.956 38.021,46.735 38.621,46.675 38.667 C 46.537 38.771,45.833 40.924,45.833 41.242 C 45.833 41.371,45.738 41.575,45.621 41.696 C 45.505 41.818,45.226 42.517,45.002 43.250 C 44.778 43.983,44.544 44.621,44.482 44.667 C 44.421 44.712,44.211 45.269,44.015 45.904 C 43.820 46.538,43.595 47.138,43.516 47.237 C 43.437 47.336,43.165 48.092,42.911 48.917 C 42.658 49.742,42.400 50.454,42.340 50.500 C 42.279 50.546,42.056 51.146,41.844 51.833 C 41.632 52.521,41.395 53.164,41.316 53.263 C 41.238 53.362,41.014 53.962,40.819 54.596 C 40.625 55.231,40.406 55.825,40.334 55.917 C 40.262 56.008,40.003 56.718,39.760 57.493 C 39.516 58.268,39.255 58.980,39.179 59.076 C 39.103 59.172,38.868 59.813,38.656 60.500 C 38.444 61.188,38.217 61.788,38.153 61.833 C 38.088 61.879,37.830 62.592,37.580 63.417 C 37.329 64.242,37.069 64.954,37.001 65.000 C 36.933 65.046,36.748 65.533,36.590 66.083 C 36.431 66.633,36.167 67.383,36.003 67.750 C 35.838 68.117,35.566 68.867,35.398 69.417 C 35.230 69.967,35.044 70.454,34.985 70.500 C 34.925 70.546,34.665 71.258,34.406 72.083 C 34.147 72.908,33.889 73.621,33.833 73.667 C 33.696 73.778,33.000 75.941,33.000 76.253 C 33.000 76.389,32.930 76.500,32.845 76.500 C 32.760 76.500,32.565 76.931,32.413 77.458 C 32.260 77.985,31.999 78.717,31.834 79.083 C 31.668 79.450,31.363 80.313,31.157 81.000 C 30.951 81.688,30.728 82.287,30.664 82.333 C 30.599 82.379,30.371 82.979,30.158 83.667 C 29.945 84.354,29.721 84.954,29.660 85.000 C 29.600 85.046,29.342 85.758,29.089 86.583 C 28.835 87.408,28.563 88.164,28.484 88.263 C 28.405 88.362,28.181 88.962,27.986 89.596 C 27.791 90.231,27.573 90.825,27.502 90.917 C 27.431 91.008,27.196 91.646,26.980 92.333 C 26.765 93.021,26.541 93.621,26.483 93.667 C 26.424 93.712,26.165 94.425,25.906 95.250 C 25.647 96.075,25.385 96.787,25.325 96.833 C 25.265 96.879,25.044 97.479,24.834 98.167 C 24.354 99.739,24.161 100.010,21.583 102.745 C 21.033 103.328,20.096 104.339,19.500 104.992 C 18.904 105.645,18.192 106.426,17.917 106.726 C 15.059 109.849,14.421 110.555,14.167 110.877 C 14.005 111.082,13.508 111.629,13.061 112.092 C 12.615 112.555,11.725 113.519,11.083 114.233 C 10.442 114.947,9.654 115.812,9.333 116.154 C 9.012 116.497,8.150 117.440,7.417 118.251 C 5.589 120.271,4.412 121.553,3.197 122.847 C 2.630 123.451,2.167 123.985,2.167 124.034 C 2.167 124.083,1.679 124.611,1.083 125.207 C 0.212 126.079,-0.000 126.392,-0.000 126.812 L 0.000 127.333 26.147 127.333 L 52.294 127.333 52.489 126.542 C 52.597 126.106,52.818 125.487,52.980 125.167 C 53.143 124.846,53.452 123.965,53.669 123.208 C 53.885 122.452,54.112 121.833,54.173 121.833 C 54.234 121.833,54.417 121.327,54.579 120.708 C 54.741 120.090,54.970 119.428,55.088 119.239 C 55.205 119.049,55.466 118.337,55.668 117.655 C 55.870 116.974,56.093 116.342,56.165 116.250 C 56.236 116.158,56.499 115.408,56.748 114.583 C 56.998 113.758,57.253 113.046,57.315 113.000 C 57.377 112.954,57.608 112.317,57.828 111.583 C 58.049 110.850,58.293 110.163,58.372 110.058 C 58.450 109.952,58.658 109.363,58.833 108.750 C 59.009 108.137,59.222 107.548,59.307 107.442 C 59.392 107.337,59.665 106.575,59.914 105.750 C 60.163 104.925,60.424 104.175,60.493 104.083 C 60.563 103.992,60.788 103.354,60.993 102.667 C 61.198 101.979,61.425 101.342,61.497 101.250 C 61.569 101.158,61.835 100.408,62.089 99.583 C 62.342 98.758,62.597 98.046,62.655 98.000 C 62.713 97.954,62.943 97.317,63.167 96.583 C 63.390 95.850,63.620 95.212,63.677 95.167 C 63.735 95.121,63.950 94.521,64.157 93.833 C 64.363 93.146,64.589 92.508,64.659 92.417 C 64.729 92.325,64.999 91.537,65.260 90.667 C 65.521 89.796,65.783 89.046,65.843 89.000 C 65.903 88.954,66.122 88.354,66.331 87.667 C 66.540 86.979,66.766 86.342,66.835 86.250 C 66.903 86.158,67.132 85.521,67.344 84.833 C 67.556 84.146,67.779 83.546,67.840 83.500 C 67.962 83.407,68.833 80.671,68.833 80.379 C 68.833 80.278,68.891 80.169,68.962 80.139 C 69.032 80.108,69.274 79.483,69.498 78.750 C 69.722 78.017,69.952 77.379,70.010 77.333 C 70.067 77.287,70.328 76.537,70.590 75.667 C 70.853 74.796,71.120 74.046,71.183 74.000 C 71.247 73.954,71.467 73.354,71.673 72.667 C 71.878 71.979,72.102 71.342,72.170 71.250 C 72.238 71.158,72.471 70.521,72.686 69.833 C 72.902 69.146,73.121 68.546,73.172 68.500 C 73.224 68.454,73.481 67.704,73.743 66.833 C 74.005 65.962,74.267 65.212,74.324 65.167 C 74.381 65.121,74.610 64.483,74.833 63.750 C 75.057 63.017,75.287 62.379,75.345 62.333 C 75.404 62.288,75.549 61.951,75.668 61.586 C 75.896 60.887,76.127 61.063,76.155 61.958 C 76.161 62.165,76.227 62.333,76.301 62.333 C 76.374 62.333,76.610 63.065,76.824 63.958 C 77.038 64.852,77.262 65.621,77.321 65.667 C 77.381 65.712,77.605 66.500,77.821 67.417 C 78.036 68.333,78.311 69.308,78.431 69.583 C 78.552 69.858,78.810 70.758,79.006 71.583 C 79.202 72.408,79.421 73.158,79.493 73.250 C 79.564 73.342,79.795 74.129,80.006 75.000 C 80.216 75.871,80.447 76.661,80.518 76.756 C 80.590 76.851,80.846 77.751,81.089 78.756 C 81.331 79.761,81.587 80.658,81.658 80.750 C 81.729 80.842,81.958 81.629,82.167 82.500 C 82.376 83.371,82.600 84.158,82.665 84.250 C 82.730 84.342,82.990 85.242,83.243 86.250 C 83.495 87.258,83.758 88.158,83.827 88.250 C 83.896 88.342,84.121 89.129,84.328 90.000 C 84.534 90.871,84.759 91.658,84.828 91.750 C 84.897 91.842,85.126 92.629,85.336 93.500 C 85.546 94.371,85.768 95.121,85.828 95.167 C 85.888 95.212,86.147 96.112,86.404 97.167 C 86.660 98.221,86.926 99.158,86.995 99.250 C 87.064 99.342,87.292 100.129,87.503 101.000 C 87.713 101.871,87.932 102.621,87.989 102.667 C 88.046 102.712,88.266 103.462,88.479 104.333 C 88.692 105.204,88.919 105.954,88.985 106.000 C 89.050 106.046,89.255 106.758,89.439 107.583 C 89.891 109.601,89.967 109.591,92.458 107.167 C 93.541 106.112,95.611 104.125,97.057 102.750 C 98.504 101.375,100.688 99.275,101.911 98.083 C 103.134 96.892,105.355 94.754,106.846 93.333 C 108.337 91.912,110.717 89.606,112.134 88.208 C 113.551 86.810,114.761 85.667,114.823 85.667 C 114.885 85.667,115.620 84.973,116.456 84.125 C 117.292 83.277,118.563 82.028,119.280 81.350 C 122.818 78.002,126.408 74.541,128.329 72.625 C 129.501 71.456,130.513 70.500,130.577 70.500 C 130.642 70.500,131.644 69.565,132.806 68.422 C 137.272 64.025,138.000 63.361,138.000 63.686 C 138.000 63.859,137.936 64.000,137.858 64.000 C 137.780 64.000,137.587 64.478,137.429 65.061 C 137.271 65.645,137.047 66.305,136.932 66.527 C 136.817 66.749,136.507 67.640,136.244 68.507 C 135.981 69.374,135.714 70.121,135.650 70.167 C 135.586 70.212,135.365 70.813,135.158 71.500 C 134.951 72.188,134.735 72.787,134.677 72.833 C 134.620 72.879,134.390 73.517,134.167 74.250 C 133.943 74.983,133.709 75.621,133.645 75.667 C 133.582 75.713,133.319 76.463,133.062 77.334 C 132.805 78.204,132.550 78.954,132.495 79.000 C 132.374 79.102,131.667 81.347,131.667 81.630 C 131.667 81.742,131.604 81.833,131.526 81.833 C 131.449 81.833,131.249 82.302,131.082 82.875 C 130.915 83.448,130.630 84.254,130.449 84.667 C 130.268 85.079,129.984 85.893,129.817 86.474 C 129.651 87.056,129.444 87.618,129.358 87.724 C 129.272 87.830,129.036 88.479,128.833 89.167 C 128.631 89.854,128.406 90.492,128.333 90.583 C 128.261 90.675,128.043 91.275,127.848 91.917 C 127.654 92.558,127.388 93.308,127.256 93.583 C 126.957 94.205,126.333 96.230,126.333 96.577 C 126.333 96.718,126.272 96.833,126.197 96.833 C 126.122 96.833,125.828 97.040,125.545 97.292 C 125.261 97.544,124.566 98.125,123.999 98.583 C 123.113 99.300,122.032 100.362,119.174 103.321 C 118.858 103.648,118.269 104.292,117.866 104.750 C 117.462 105.208,116.420 106.333,115.549 107.250 C 113.682 109.215,112.086 110.921,110.250 112.915 C 109.517 113.711,108.392 114.908,107.750 115.575 C 106.399 116.978,104.055 119.514,103.614 120.049 C 103.329 120.395,102.006 121.791,98.975 124.944 C 98.029 125.927,97.667 126.424,97.667 126.735 L 97.667 127.167 106.750 127.167 L 115.833 127.167 115.833 126.678 C 115.833 125.947,116.076 125.440,116.781 124.700 C 117.131 124.333,118.054 123.340,118.833 122.495 C 119.612 121.650,120.699 120.499,121.247 119.937 C 121.796 119.376,122.498 118.617,122.808 118.250 C 123.118 117.883,123.894 117.021,124.533 116.333 C 125.172 115.646,126.195 114.546,126.806 113.888 C 127.417 113.231,128.442 112.126,129.083 111.432 C 129.725 110.739,130.662 109.728,131.167 109.186 C 131.671 108.644,132.721 107.503,133.500 106.650 C 134.279 105.798,135.465 104.524,136.136 103.821 C 136.807 103.118,137.458 102.401,137.583 102.229 C 137.708 102.057,138.445 101.256,139.222 100.450 C 140.276 99.356,140.691 98.794,140.854 98.241 C 140.974 97.834,141.126 97.500,141.191 97.500 C 141.257 97.500,141.479 96.956,141.687 96.292 C 141.894 95.627,142.122 95.043,142.194 94.993 C 142.266 94.943,142.478 94.425,142.664 93.841 C 142.851 93.258,143.070 92.699,143.152 92.599 C 143.233 92.499,143.501 91.818,143.745 91.086 C 143.990 90.354,144.250 89.679,144.323 89.586 C 144.396 89.493,144.622 88.929,144.825 88.333 C 145.029 87.737,145.256 87.175,145.331 87.083 C 145.406 86.992,145.656 86.354,145.887 85.667 C 146.117 84.979,146.424 84.192,146.567 83.917 C 146.711 83.642,146.956 83.005,147.112 82.500 C 147.268 81.996,147.446 81.546,147.507 81.500 C 147.567 81.454,147.789 80.892,148.000 80.250 C 148.211 79.608,148.436 79.046,148.500 79.000 C 148.564 78.954,148.827 78.279,149.083 77.500 C 149.340 76.721,149.602 76.046,149.667 76.000 C 149.731 75.954,149.956 75.392,150.167 74.750 C 150.377 74.108,150.602 73.546,150.667 73.500 C 150.731 73.454,150.957 72.892,151.168 72.250 C 151.379 71.608,151.644 70.933,151.757 70.750 C 151.870 70.567,152.132 69.892,152.340 69.250 C 152.548 68.608,152.811 67.933,152.923 67.750 C 153.036 67.567,153.261 67.004,153.422 66.500 C 153.584 65.996,153.769 65.546,153.833 65.500 C 153.898 65.454,154.122 64.892,154.331 64.250 C 154.540 63.608,154.780 62.996,154.863 62.890 C 154.947 62.784,155.200 62.116,155.425 61.406 C 155.650 60.697,155.900 60.033,155.981 59.933 C 156.061 59.832,156.298 59.262,156.508 58.667 C 156.718 58.071,156.945 57.508,157.012 57.417 C 157.079 57.325,157.334 56.651,157.579 55.919 C 157.824 55.187,158.077 54.550,158.143 54.502 C 158.208 54.455,158.444 53.854,158.667 53.167 C 158.890 52.479,159.124 51.879,159.189 51.832 C 159.253 51.785,159.474 51.260,159.679 50.665 C 159.884 50.070,160.140 49.433,160.248 49.250 C 160.357 49.067,160.624 48.354,160.842 47.667 C 161.060 46.979,161.296 46.376,161.365 46.326 C 161.435 46.276,161.638 45.789,161.816 45.243 C 161.995 44.697,162.296 43.935,162.487 43.550 C 162.677 43.165,162.833 42.749,162.833 42.627 C 162.833 42.504,162.986 42.107,163.173 41.744 C 163.361 41.380,163.692 40.558,163.910 39.917 C 164.128 39.275,164.424 38.525,164.567 38.250 C 164.711 37.976,164.956 37.338,165.112 36.834 C 165.268 36.329,165.446 35.879,165.507 35.833 C 165.567 35.787,165.789 35.225,166.000 34.583 C 166.211 33.942,166.436 33.379,166.500 33.333 C 166.565 33.287,166.834 32.612,167.099 31.833 C 167.364 31.054,167.631 30.378,167.694 30.331 C 167.852 30.213,168.328 28.813,168.331 28.458 C 168.333 28.191,168.078 28.167,165.289 28.167 L 162.244 28.167 161.760 29.542 C 161.493 30.298,161.224 30.954,161.162 31.000 C 161.100 31.046,160.882 31.570,160.678 32.165 C 160.473 32.760,160.251 33.285,160.184 33.332 C 160.117 33.379,159.885 33.904,159.667 34.500 C 159.450 35.096,159.184 35.733,159.077 35.917 C 158.969 36.100,158.706 36.737,158.492 37.333 C 158.279 37.929,158.058 38.454,158.002 38.500 C 157.849 38.625,157.333 40.055,157.333 40.356 C 157.333 40.759,156.554 41.508,155.956 41.679 C 155.644 41.769,148.633 41.833,139.234 41.833 C 122.396 41.833,122.190 41.825,121.699 41.138 C 121.378 40.689,121.075 40.761,120.354 41.458 C 119.998 41.802,118.494 43.246,117.010 44.667 C 115.527 46.087,113.183 48.356,111.802 49.708 C 110.420 51.060,109.237 52.167,109.171 52.167 C 109.105 52.167,108.882 51.454,108.675 50.583 C 108.468 49.712,108.247 49.000,108.183 49.000 C 108.120 49.000,107.934 48.419,107.769 47.708 C 107.605 46.998,107.369 46.192,107.245 45.917 C 107.121 45.642,106.850 44.779,106.644 44.000 C 106.437 43.221,106.221 42.546,106.163 42.500 C 106.106 42.454,105.845 41.573,105.583 40.542 C 105.321 39.510,105.045 38.667,104.970 38.667 C 104.895 38.667,104.833 38.544,104.833 38.393 C 104.833 38.063,104.212 35.851,104.021 35.500 C 103.946 35.362,103.709 34.575,103.494 33.750 C 103.279 32.925,103.057 32.212,103.000 32.167 C 102.943 32.121,102.723 31.408,102.512 30.583 C 102.300 29.758,102.027 28.858,101.905 28.583 C 101.783 28.308,101.523 27.446,101.327 26.667 C 101.132 25.887,100.910 25.175,100.835 25.083 C 100.760 24.992,100.500 24.131,100.258 23.172 C 100.016 22.212,99.765 21.387,99.701 21.339 C 99.636 21.290,99.402 20.537,99.181 19.667 C 98.960 18.796,98.727 18.046,98.665 18.000 C 98.602 17.954,98.417 17.354,98.253 16.667 C 98.090 15.979,97.816 15.102,97.645 14.717 C 97.473 14.333,97.333 13.929,97.333 13.819 C 97.333 13.545,96.689 11.308,96.521 11.000 C 96.446 10.862,96.209 10.075,95.994 9.250 C 95.779 8.425,95.553 7.712,95.491 7.667 C 95.429 7.621,95.204 6.890,94.990 6.042 C 94.777 5.194,94.542 4.500,94.468 4.500 C 94.394 4.500,94.333 4.383,94.333 4.241 C 94.333 3.908,93.542 1.059,93.283 0.458 L 93.085 0.000 65.543 0.000 C 47.292 0.000,38.000 0.056,38.000 0.167 M212.500 46.963 C 212.500 47.108,212.927 47.744,213.323 48.188 C 213.466 48.349,213.846 48.793,214.167 49.175 C 214.487 49.557,214.956 50.079,215.208 50.335 C 215.460 50.591,215.667 50.877,215.667 50.971 C 215.667 51.066,215.854 51.290,216.083 51.470 C 216.487 51.788,216.640 52.167,216.365 52.167 C 216.291 52.167,216.062 52.729,215.855 53.417 C 215.649 54.104,215.427 54.667,215.363 54.667 C 215.299 54.667,215.061 55.267,214.833 56.000 C 214.606 56.733,214.369 57.333,214.307 57.333 C 214.245 57.333,214.028 57.840,213.826 58.458 C 213.623 59.077,213.278 59.984,213.058 60.474 C 212.837 60.963,212.569 61.694,212.461 62.099 C 212.353 62.503,212.214 62.833,212.152 62.833 C 212.090 62.833,211.828 63.490,211.570 64.292 C 211.312 65.094,211.050 65.787,210.987 65.833 C 210.924 65.879,210.697 66.442,210.481 67.083 C 210.265 67.725,210.033 68.291,209.965 68.341 C 209.897 68.391,209.695 68.878,209.517 69.424 C 208.815 71.573,208.459 72.058,205.242 75.256 C 203.550 76.937,202.167 78.392,202.167 78.489 C 202.167 78.786,216.125 78.732,216.423 78.435 C 216.550 78.307,216.817 77.726,217.016 77.143 C 217.215 76.560,217.434 76.008,217.502 75.917 C 217.570 75.825,217.799 75.225,218.011 74.583 C 218.222 73.942,218.487 73.267,218.600 73.083 C 218.712 72.900,218.962 72.231,219.156 71.596 C 219.349 70.962,219.574 70.362,219.655 70.263 C 219.737 70.164,219.972 69.558,220.178 68.917 C 220.383 68.275,220.645 67.600,220.758 67.417 C 220.872 67.233,221.137 66.521,221.347 65.833 C 221.558 65.146,221.781 64.546,221.845 64.500 C 221.908 64.454,222.095 63.985,222.260 63.458 C 222.661 62.181,222.676 62.197,223.236 64.501 C 223.503 65.601,223.770 66.500,223.830 66.500 C 223.891 66.500,224.117 67.250,224.333 68.167 C 224.550 69.083,224.776 69.833,224.836 69.833 C 224.896 69.833,225.159 70.696,225.420 71.750 C 225.681 72.804,225.956 73.667,226.031 73.667 C 226.105 73.667,226.167 73.779,226.167 73.917 C 226.167 74.488,227.031 73.998,228.281 72.718 C 228.756 72.232,229.202 71.833,229.272 71.833 C 229.342 71.833,229.629 71.612,229.908 71.342 C 230.359 70.907,231.089 70.266,234.642 67.189 C 235.719 66.256,236.429 65.623,237.750 64.417 C 238.300 63.915,238.806 63.503,238.875 63.502 C 239.078 63.499,239.018 63.900,238.762 64.265 C 238.631 64.452,238.357 65.125,238.153 65.761 C 237.949 66.397,237.693 67.067,237.585 67.250 C 237.476 67.433,237.209 68.146,236.991 68.833 C 236.773 69.521,236.547 70.121,236.489 70.167 C 236.431 70.212,236.211 70.775,236.000 71.417 C 235.789 72.058,235.564 72.621,235.500 72.667 C 235.436 72.712,235.173 73.387,234.917 74.167 C 234.660 74.946,234.398 75.621,234.334 75.667 C 234.180 75.777,233.500 77.973,233.500 78.361 C 233.500 78.651,233.769 78.667,238.667 78.667 C 242.000 78.667,243.833 78.608,243.833 78.500 C 243.833 78.408,243.981 78.333,244.162 78.333 C 245.291 78.333,247.620 76.568,247.997 75.426 C 248.104 75.100,248.244 74.833,248.307 74.833 C 248.370 74.833,248.606 74.440,248.832 73.958 C 249.058 73.477,249.338 72.984,249.454 72.863 C 250.093 72.200,249.751 72.000,247.982 72.000 C 246.445 72.000,246.308 71.975,246.414 71.708 C 246.478 71.548,246.651 71.042,246.799 70.583 C 246.946 70.125,247.126 69.708,247.199 69.658 C 247.272 69.607,247.518 69.016,247.746 68.344 C 247.975 67.673,248.226 67.040,248.305 66.937 C 248.384 66.834,248.628 66.225,248.846 65.583 C 249.065 64.942,249.300 64.376,249.368 64.326 C 249.436 64.276,249.638 63.789,249.816 63.243 C 249.995 62.697,250.285 61.950,250.463 61.583 C 250.640 61.217,250.926 60.504,251.099 60.000 C 251.272 59.496,251.469 59.043,251.536 58.993 C 251.604 58.943,251.805 58.455,251.983 57.909 C 252.161 57.363,252.455 56.617,252.636 56.250 C 252.817 55.883,253.063 55.246,253.185 54.833 C 253.498 53.765,253.647 53.667,254.954 53.667 L 256.098 53.667 256.409 52.750 C 256.581 52.246,256.782 51.833,256.857 51.833 C 256.932 51.833,257.045 51.627,257.107 51.375 C 257.169 51.123,257.545 50.222,257.943 49.374 C 258.341 48.525,258.667 47.719,258.667 47.582 C 258.667 47.445,258.742 47.333,258.833 47.333 C 258.925 47.333,259.000 47.221,259.000 47.083 C 259.000 46.865,258.157 46.833,252.411 46.833 C 244.901 46.833,245.677 46.686,243.836 48.467 C 243.239 49.044,242.327 49.926,241.809 50.425 C 241.292 50.925,240.809 51.333,240.737 51.333 C 240.664 51.333,240.150 51.780,239.594 52.327 C 239.038 52.873,238.064 53.792,237.430 54.368 C 236.796 54.945,235.746 55.916,235.097 56.526 C 234.448 57.136,233.504 57.992,233.000 58.428 C 232.496 58.864,232.058 59.284,232.028 59.361 C 231.927 59.614,231.667 59.505,231.666 59.208 C 231.665 59.048,231.556 58.708,231.423 58.453 C 231.290 58.199,231.021 57.411,230.826 56.703 C 230.630 55.996,230.372 55.263,230.253 55.075 C 230.134 54.887,229.870 54.137,229.667 53.409 C 229.464 52.680,229.238 52.008,229.164 51.917 C 229.091 51.825,228.903 51.300,228.746 50.750 C 228.589 50.200,228.324 49.446,228.158 49.074 C 227.991 48.702,227.766 48.046,227.657 47.616 L 227.460 46.833 219.980 46.833 C 215.866 46.833,212.500 46.892,212.500 46.963 M290.167 47.074 C 290.167 47.206,290.301 47.412,290.465 47.532 C 290.629 47.652,290.947 48.012,291.171 48.333 C 291.618 48.972,291.965 49.403,292.802 50.353 C 293.338 50.962,293.350 52.096,292.824 52.500 C 292.765 52.546,292.499 53.221,292.234 54.000 C 291.970 54.779,291.707 55.454,291.651 55.500 C 291.595 55.546,291.416 55.996,291.254 56.500 C 291.091 57.004,290.794 57.792,290.594 58.250 C 290.393 58.708,290.125 59.421,289.997 59.833 C 289.869 60.246,289.714 60.621,289.654 60.667 C 289.593 60.712,289.331 61.425,289.072 62.250 C 288.813 63.075,288.544 63.790,288.473 63.840 C 288.402 63.889,288.183 64.452,287.987 65.090 C 287.790 65.728,287.572 66.287,287.503 66.333 C 287.433 66.379,287.172 67.073,286.923 67.875 C 286.674 68.677,286.421 69.333,286.360 69.333 C 286.300 69.333,286.104 69.802,285.926 70.375 C 285.748 70.948,285.467 71.678,285.301 71.998 C 285.135 72.317,285.000 72.676,285.000 72.794 C 285.000 72.913,283.800 74.208,282.333 75.672 C 280.867 77.136,279.667 78.408,279.667 78.500 C 279.667 78.608,281.861 78.667,285.917 78.667 C 289.354 78.667,292.167 78.609,292.167 78.539 C 292.167 78.469,292.545 78.277,293.007 78.113 C 293.469 77.949,294.044 77.594,294.285 77.324 C 294.525 77.054,294.816 76.833,294.931 76.833 C 295.045 76.833,295.302 76.571,295.500 76.250 C 295.698 75.929,295.931 75.667,296.016 75.667 C 296.102 75.667,296.293 75.385,296.442 75.042 C 296.590 74.698,296.889 74.028,297.106 73.552 C 297.788 72.056,297.748 72.000,295.982 72.000 C 294.602 72.000,294.475 71.974,294.584 71.708 C 294.650 71.548,294.746 71.267,294.796 71.083 C 294.846 70.900,294.942 70.712,295.008 70.667 C 295.075 70.621,295.289 70.064,295.485 69.430 C 295.680 68.795,295.904 68.195,295.981 68.096 C 296.059 67.997,296.255 67.504,296.416 67.000 C 296.577 66.496,296.844 65.780,297.010 65.410 C 297.175 65.039,297.409 64.421,297.529 64.035 L 297.748 63.333 300.392 63.333 C 302.437 63.333,303.018 63.380,302.958 63.542 C 302.915 63.656,302.776 64.050,302.649 64.417 C 302.522 64.783,302.373 65.121,302.317 65.167 C 302.262 65.212,302.043 65.775,301.832 66.417 C 301.621 67.058,301.356 67.733,301.243 67.917 C 301.130 68.100,300.868 68.775,300.661 69.417 C 300.454 70.058,300.230 70.621,300.165 70.667 C 300.099 70.712,299.871 71.313,299.658 72.000 C 299.445 72.688,299.215 73.288,299.148 73.335 C 299.081 73.382,298.821 74.019,298.570 74.752 C 298.319 75.484,298.062 76.121,298.000 76.167 C 297.762 76.342,297.374 77.804,297.455 78.226 L 297.539 78.667 302.019 78.667 C 304.521 78.667,306.500 78.601,306.500 78.519 C 306.500 78.437,306.779 78.318,307.119 78.254 C 307.862 78.115,308.667 77.721,308.667 77.496 C 308.667 77.406,308.768 77.333,308.893 77.333 C 309.726 77.333,311.629 74.531,311.795 73.059 L 311.877 72.333 310.522 72.333 C 309.776 72.333,309.167 72.272,309.167 72.196 C 309.167 71.969,309.712 70.423,309.824 70.333 C 309.881 70.287,310.110 69.688,310.331 69.000 C 310.553 68.313,310.825 67.600,310.936 67.417 C 311.047 67.233,311.302 66.521,311.504 65.833 C 311.706 65.146,311.924 64.546,311.990 64.500 C 312.150 64.388,312.667 62.766,312.667 62.375 C 312.667 62.203,312.024 61.411,311.238 60.615 L 309.810 59.167 304.637 59.167 C 299.778 59.167,299.471 59.149,299.579 58.875 C 299.642 58.715,299.809 58.246,299.950 57.833 C 300.091 57.421,300.261 57.046,300.328 57.000 C 300.396 56.954,300.586 56.506,300.752 56.003 C 300.917 55.501,301.219 54.751,301.423 54.337 C 301.627 53.922,301.889 53.283,302.005 52.917 C 302.122 52.550,302.316 52.098,302.437 51.911 C 302.558 51.725,302.811 51.091,302.999 50.502 C 303.187 49.913,303.403 49.391,303.479 49.341 C 303.621 49.247,304.333 47.296,304.333 46.999 C 304.333 46.892,301.842 46.833,297.250 46.833 C 291.188 46.833,290.167 46.868,290.167 47.074 M321.167 47.077 C 321.167 47.212,321.317 47.402,321.500 47.500 C 321.683 47.598,321.833 47.759,321.833 47.857 C 321.833 48.016,322.188 48.514,323.533 50.243 C 324.401 51.359,324.416 52.242,323.590 53.583 C 323.477 53.767,323.212 54.442,323.001 55.083 C 322.790 55.725,322.564 56.288,322.500 56.333 C 322.435 56.379,322.249 56.829,322.087 57.333 C 321.924 57.837,321.624 58.625,321.420 59.083 C 321.216 59.542,320.914 60.329,320.750 60.833 C 320.585 61.337,320.398 61.788,320.334 61.833 C 320.270 61.879,320.083 62.367,319.918 62.917 C 319.754 63.467,319.523 64.074,319.405 64.267 C 319.288 64.459,319.003 65.172,318.773 65.850 C 318.542 66.528,318.199 67.398,318.010 67.784 C 317.821 68.169,317.667 68.561,317.667 68.654 C 317.667 68.748,317.453 69.296,317.193 69.871 C 316.932 70.446,316.616 71.273,316.490 71.708 C 316.364 72.144,316.210 72.500,316.148 72.500 C 316.087 72.500,315.993 72.672,315.940 72.881 C 315.888 73.091,315.270 73.781,314.566 74.415 C 312.714 76.087,310.500 78.312,310.500 78.502 C 310.500 78.609,314.383 78.667,321.500 78.667 C 328.722 78.667,332.500 78.609,332.500 78.500 C 332.500 78.408,332.649 78.333,332.832 78.333 C 333.216 78.333,334.845 77.739,334.987 77.547 C 335.040 77.475,335.431 77.229,335.856 77.000 C 336.824 76.478,337.771 75.356,338.010 74.446 C 338.111 74.063,338.293 73.595,338.414 73.405 C 338.535 73.216,338.793 72.547,338.987 71.918 C 339.181 71.290,339.406 70.695,339.486 70.596 C 339.566 70.497,339.839 69.817,340.093 69.083 C 340.347 68.350,340.617 67.668,340.693 67.568 C 340.768 67.468,340.982 66.912,341.167 66.333 C 341.352 65.754,341.567 65.199,341.646 65.099 C 342.676 63.790,342.450 62.702,340.788 60.958 L 339.397 59.500 334.798 59.500 L 330.199 59.500 330.519 58.625 C 330.695 58.144,330.941 57.563,331.064 57.333 C 331.188 57.104,331.460 56.392,331.669 55.750 C 331.878 55.108,332.103 54.546,332.169 54.500 C 332.234 54.454,332.462 53.854,332.676 53.167 C 332.889 52.479,333.118 51.879,333.185 51.832 C 333.251 51.785,333.472 51.260,333.675 50.665 C 333.878 50.070,334.110 49.500,334.190 49.399 C 334.374 49.164,335.000 47.355,335.000 47.057 C 335.000 46.873,333.762 46.833,328.083 46.833 C 322.120 46.833,321.167 46.867,321.167 47.077 M379.000 47.007 C 379.000 47.227,379.682 48.207,379.958 48.383 C 380.073 48.457,380.168 48.607,380.169 48.717 C 380.171 48.827,380.377 49.159,380.628 49.456 C 382.029 51.114,382.374 51.939,381.831 52.333 C 381.768 52.379,381.544 52.942,381.333 53.583 C 381.123 54.225,380.898 54.788,380.833 54.833 C 380.769 54.879,380.543 55.442,380.332 56.083 C 380.121 56.725,379.854 57.400,379.738 57.583 C 379.623 57.767,379.417 58.300,379.280 58.768 C 379.144 59.237,378.841 60.024,378.608 60.518 C 378.376 61.012,378.090 61.773,377.975 62.208 C 377.859 62.644,377.711 63.000,377.646 63.000 C 377.581 63.000,377.361 63.506,377.158 64.125 C 376.955 64.744,376.731 65.325,376.661 65.417 C 376.591 65.508,376.333 66.182,376.088 66.914 C 375.843 67.646,375.583 68.321,375.510 68.414 C 375.437 68.507,375.247 68.996,375.087 69.500 C 374.926 70.004,374.704 70.567,374.591 70.750 C 374.479 70.933,374.234 71.539,374.047 72.096 C 373.735 73.028,373.500 73.315,371.104 75.695 C 369.672 77.118,368.500 78.368,368.500 78.474 C 368.500 78.618,371.249 78.667,379.347 78.667 L 390.194 78.667 391.472 78.228 C 392.175 77.986,392.929 77.611,393.148 77.394 C 393.366 77.177,393.629 76.999,393.731 76.999 C 394.092 76.996,395.275 75.573,395.496 74.875 C 395.619 74.485,395.766 74.167,395.822 74.167 C 395.878 74.167,396.107 73.623,396.330 72.958 C 396.553 72.294,396.784 71.712,396.843 71.667 C 396.902 71.621,397.118 71.096,397.323 70.500 C 397.528 69.904,397.756 69.342,397.830 69.250 C 397.904 69.158,398.174 68.483,398.430 67.750 C 398.687 67.017,398.941 66.379,398.995 66.333 C 399.219 66.143,400.004 63.538,400.002 62.991 C 400.000 62.471,399.824 62.221,398.566 60.952 L 397.132 59.505 392.492 59.461 L 387.853 59.417 388.233 58.667 C 388.442 58.254,388.749 57.504,388.915 57.000 C 389.082 56.496,389.311 55.933,389.426 55.750 C 389.540 55.567,389.809 54.854,390.023 54.167 C 390.237 53.479,390.467 52.876,390.535 52.826 C 390.603 52.776,390.812 52.254,391.000 51.667 C 391.188 51.079,391.397 50.557,391.466 50.507 C 391.534 50.457,391.769 49.892,391.989 49.250 C 392.208 48.608,392.488 47.935,392.611 47.755 C 393.255 46.803,393.474 46.833,385.917 46.833 C 381.237 46.833,379.000 46.889,379.000 47.007 M263.167 59.333 C 263.167 59.425,263.056 59.500,262.921 59.500 C 261.510 59.500,258.958 61.647,258.331 63.363 C 258.119 63.943,257.882 64.501,257.804 64.604 C 257.725 64.706,257.476 65.335,257.250 66.000 C 257.024 66.665,256.772 67.294,256.690 67.396 C 256.609 67.499,256.373 68.071,256.167 68.667 C 255.960 69.262,255.724 69.834,255.643 69.937 C 255.561 70.040,255.301 70.677,255.065 71.353 C 254.829 72.030,254.585 72.621,254.523 72.666 C 254.348 72.796,253.663 74.875,253.665 75.271 C 253.667 75.598,254.664 76.830,255.977 78.125 L 256.526 78.667 265.818 78.667 C 270.929 78.667,275.159 78.618,275.218 78.559 C 275.277 78.500,275.726 78.289,276.215 78.091 C 276.704 77.892,277.274 77.584,277.482 77.406 C 278.480 76.554,279.509 75.367,279.777 74.758 C 279.940 74.387,280.120 74.046,280.177 74.000 C 280.298 73.901,280.667 72.467,280.667 72.093 C 280.667 71.878,280.421 71.833,279.250 71.833 C 278.417 71.833,277.833 71.765,277.833 71.667 C 277.833 71.575,277.893 71.500,277.965 71.500 C 278.038 71.500,278.241 71.069,278.417 70.542 C 278.593 70.015,278.899 69.246,279.098 68.833 C 279.297 68.421,279.592 67.671,279.754 67.167 C 279.917 66.662,280.099 66.212,280.160 66.167 C 280.221 66.121,280.449 65.596,280.666 65.000 C 280.883 64.404,281.151 63.767,281.261 63.583 C 281.372 63.400,281.594 62.837,281.756 62.333 C 281.917 61.829,282.101 61.379,282.165 61.333 C 282.305 61.232,282.833 59.694,282.833 59.387 C 282.833 59.207,281.041 59.167,273.000 59.167 C 266.556 59.167,263.167 59.224,263.167 59.333 M345.333 59.467 C 345.333 59.633,345.550 60.110,345.815 60.527 C 346.079 60.944,346.347 61.446,346.409 61.642 C 346.471 61.838,346.611 62.092,346.719 62.207 C 347.452 62.984,347.537 65.500,346.831 65.500 C 346.772 65.500,346.544 66.044,346.326 66.708 C 346.107 67.373,345.876 67.955,345.811 68.001 C 345.747 68.048,345.527 68.573,345.322 69.168 C 345.118 69.763,344.898 70.287,344.833 70.333 C 344.769 70.379,344.499 71.054,344.234 71.833 C 343.970 72.612,343.698 73.291,343.631 73.340 C 343.446 73.478,343.000 74.827,343.000 75.251 C 343.000 75.498,343.294 75.877,343.855 76.355 C 344.325 76.756,344.992 77.346,345.336 77.667 C 345.681 77.987,346.080 78.344,346.224 78.458 C 346.504 78.681,363.998 78.779,364.218 78.559 C 364.277 78.500,364.721 78.289,365.204 78.091 C 366.691 77.479,368.381 75.849,368.733 74.688 C 368.861 74.264,369.086 73.692,369.232 73.417 C 369.760 72.424,369.662 72.333,368.064 72.333 C 366.651 72.333,366.630 72.327,366.744 71.958 C 366.808 71.752,366.900 71.415,366.950 71.208 C 366.999 71.002,367.099 70.833,367.172 70.833 C 367.246 70.833,367.473 70.290,367.677 69.625 C 367.881 68.960,368.101 68.379,368.166 68.333 C 368.231 68.287,368.451 67.762,368.656 67.167 C 368.861 66.571,369.090 66.008,369.164 65.917 C 369.239 65.825,369.489 65.188,369.720 64.500 C 369.951 63.813,370.257 63.025,370.401 62.750 C 370.544 62.476,370.790 61.838,370.948 61.334 C 371.105 60.829,371.331 60.318,371.450 60.196 C 371.569 60.075,371.667 59.794,371.667 59.571 L 371.667 59.167 367.026 59.167 L 362.386 59.167 362.083 60.167 C 361.917 60.717,361.731 61.167,361.670 61.167 C 361.609 61.167,361.378 61.748,361.158 62.458 C 360.937 63.169,360.704 63.773,360.639 63.802 C 360.574 63.831,360.356 64.393,360.153 65.052 C 359.951 65.711,359.732 66.287,359.667 66.333 C 359.602 66.379,359.332 67.054,359.068 67.833 C 358.803 68.612,358.541 69.287,358.485 69.333 C 358.429 69.379,358.211 69.942,358.000 70.583 C 357.789 71.225,357.565 71.787,357.500 71.833 C 357.436 71.879,357.197 72.479,356.970 73.167 L 356.556 74.417 354.361 74.463 C 352.483 74.503,352.167 74.473,352.167 74.255 C 352.167 74.115,352.235 74.000,352.319 74.000 C 352.403 74.000,352.635 73.475,352.833 72.833 C 353.032 72.192,353.263 71.667,353.347 71.667 C 353.431 71.667,353.500 71.557,353.500 71.422 C 353.500 71.192,353.630 70.855,354.336 69.250 C 354.497 68.883,354.794 68.096,354.995 67.501 C 355.196 66.906,355.412 66.381,355.475 66.335 C 355.538 66.288,355.770 65.725,355.990 65.083 C 356.211 64.442,356.442 63.879,356.504 63.833 C 356.566 63.788,356.789 63.225,357.000 62.583 C 357.211 61.942,357.432 61.379,357.492 61.333 C 357.654 61.209,358.167 59.781,358.167 59.453 C 358.167 59.187,357.702 59.167,351.750 59.167 C 345.677 59.167,345.333 59.183,345.333 59.467 M333.333 63.990 C 333.333 64.076,333.270 64.186,333.193 64.234 C 333.116 64.281,332.841 64.979,332.581 65.785 C 332.321 66.591,332.062 67.287,332.005 67.333 C 331.949 67.379,331.799 67.754,331.671 68.167 C 331.544 68.579,331.305 69.217,331.139 69.583 C 330.974 69.950,330.651 70.803,330.422 71.479 C 330.193 72.156,329.877 72.999,329.721 73.354 L 329.436 74.000 327.123 74.000 L 324.811 74.000 324.923 73.625 C 325.336 72.241,325.584 71.540,325.764 71.250 C 325.878 71.067,326.129 70.397,326.322 69.763 C 326.515 69.128,326.738 68.528,326.817 68.430 C 326.896 68.331,327.137 67.688,327.353 67.000 C 327.569 66.313,327.791 65.712,327.848 65.667 C 327.905 65.621,328.080 65.190,328.239 64.708 L 328.527 63.833 330.930 63.833 C 332.321 63.833,333.333 63.899,333.333 63.990 M390.916 64.125 C 390.851 64.285,390.723 64.674,390.632 64.989 C 390.542 65.304,390.371 65.716,390.253 65.906 C 390.136 66.095,389.904 66.700,389.738 67.250 C 389.573 67.800,389.388 68.287,389.327 68.333 C 389.266 68.379,389.083 68.829,388.920 69.333 C 388.758 69.837,388.458 70.625,388.255 71.083 C 388.052 71.542,387.753 72.367,387.591 72.917 L 387.295 73.917 384.939 73.859 C 383.644 73.827,382.564 73.783,382.541 73.761 C 382.470 73.694,382.879 72.589,383.008 72.500 C 383.074 72.454,383.328 71.781,383.573 71.004 C 383.818 70.227,384.071 69.552,384.135 69.504 C 384.199 69.456,384.394 68.967,384.569 68.417 C 384.744 67.867,384.976 67.267,385.084 67.083 C 385.193 66.900,385.415 66.337,385.578 65.833 C 385.740 65.329,385.985 64.673,386.122 64.375 L 386.371 63.833 388.703 63.833 C 390.859 63.833,391.027 63.855,390.916 64.125 M272.074 64.375 C 272.011 64.581,271.813 65.050,271.634 65.417 C 271.456 65.783,271.155 66.496,270.966 67.000 C 270.777 67.504,270.563 67.993,270.490 68.085 C 270.418 68.178,270.193 68.703,269.990 69.252 C 269.788 69.801,269.557 70.333,269.477 70.435 C 269.397 70.536,269.183 71.051,269.002 71.577 C 268.821 72.104,268.508 72.865,268.307 73.267 L 267.941 74.000 265.801 74.000 L 263.660 74.000 263.772 73.542 C 263.834 73.290,264.021 72.825,264.188 72.510 C 264.355 72.195,264.655 71.407,264.853 70.760 C 265.052 70.113,265.268 69.546,265.333 69.500 C 265.398 69.454,265.623 68.892,265.834 68.250 C 266.045 67.608,266.312 66.933,266.427 66.750 C 266.541 66.567,266.772 65.967,266.940 65.417 C 267.384 63.963,267.278 64.014,269.886 64.006 L 272.189 64.000 272.074 64.375 " stroke="none" fill="#fcfcfc" fill-rule="evenodd"></path><path id="path1" d="M138.406 1.375 C 138.155 2.131,137.898 2.788,137.833 2.833 C 137.769 2.879,137.544 3.442,137.333 4.083 C 137.123 4.725,136.901 5.287,136.841 5.333 C 136.781 5.379,136.517 6.017,136.254 6.750 C 135.992 7.483,135.724 8.121,135.660 8.167 C 135.595 8.212,135.364 8.813,135.146 9.500 C 134.928 10.188,134.698 10.773,134.635 10.802 C 134.572 10.831,134.354 11.356,134.152 11.969 C 133.950 12.582,133.731 13.121,133.666 13.167 C 133.602 13.213,133.332 13.887,133.068 14.667 C 132.803 15.446,132.531 16.124,132.464 16.174 C 132.397 16.224,132.188 16.746,132.000 17.333 C 131.812 17.921,131.603 18.443,131.534 18.493 C 131.466 18.543,131.232 19.108,131.013 19.750 C 130.795 20.392,130.551 21.001,130.472 21.104 C 130.393 21.207,130.146 21.807,129.923 22.437 C 129.701 23.067,129.365 23.898,129.176 24.284 C 128.988 24.669,128.833 25.070,128.833 25.176 C 128.833 25.282,128.658 25.718,128.443 26.146 C 128.228 26.573,127.918 27.334,127.754 27.837 C 127.590 28.339,127.390 28.834,127.309 28.937 C 127.228 29.040,126.982 29.640,126.762 30.270 C 126.543 30.901,126.207 31.732,126.015 32.117 C 125.823 32.502,125.667 32.904,125.667 33.009 C 125.667 33.115,125.495 33.550,125.284 33.976 C 125.074 34.402,124.718 35.313,124.493 36.000 C 124.268 36.688,124.042 37.287,123.993 37.333 C 123.678 37.622,123.167 38.764,123.167 39.177 L 123.167 39.668 139.361 39.626 L 155.556 39.583 155.719 39.083 C 155.810 38.808,155.936 38.546,156.000 38.500 C 156.065 38.454,156.250 38.004,156.411 37.500 C 156.572 36.996,156.796 36.433,156.908 36.250 C 157.021 36.067,157.318 35.317,157.570 34.584 C 157.822 33.851,158.086 33.176,158.158 33.084 C 158.230 32.992,158.460 32.392,158.669 31.750 C 158.878 31.108,159.102 30.546,159.167 30.500 C 159.231 30.454,159.456 29.892,159.667 29.250 C 159.877 28.608,160.104 28.046,160.171 28.000 C 160.238 27.954,160.428 27.485,160.593 26.958 L 160.894 26.000 166.102 26.000 L 171.310 26.000 171.162 26.516 C 171.081 26.800,170.946 27.119,170.863 27.224 C 170.779 27.330,170.502 28.054,170.247 28.833 C 169.992 29.613,169.734 30.287,169.674 30.333 C 169.570 30.412,169.332 31.026,168.124 34.333 C 167.840 35.112,167.557 35.787,167.495 35.833 C 167.433 35.879,167.211 36.442,167.000 37.083 C 166.789 37.725,166.566 38.287,166.504 38.333 C 166.442 38.379,166.211 38.942,165.990 39.583 C 165.770 40.225,165.545 40.787,165.491 40.833 C 165.436 40.879,165.174 41.554,164.909 42.333 C 164.643 43.112,164.379 43.788,164.321 43.833 C 164.263 43.879,164.044 44.442,163.833 45.083 C 163.623 45.725,163.398 46.288,163.333 46.333 C 163.269 46.379,163.043 46.942,162.832 47.583 C 162.621 48.225,162.356 48.900,162.243 49.083 C 162.130 49.267,161.868 49.942,161.660 50.583 C 161.452 51.225,161.189 51.900,161.077 52.083 C 160.964 52.267,160.739 52.829,160.577 53.333 C 160.415 53.837,160.190 54.400,160.077 54.583 C 159.964 54.767,159.739 55.329,159.578 55.833 C 159.416 56.337,159.231 56.788,159.167 56.833 C 159.102 56.879,158.840 57.554,158.583 58.333 C 158.327 59.112,158.064 59.788,158.000 59.833 C 157.936 59.879,157.710 60.442,157.499 61.083 C 157.288 61.725,157.023 62.400,156.910 62.583 C 156.797 62.767,156.535 63.442,156.328 64.083 C 156.120 64.725,155.903 65.287,155.845 65.333 C 155.786 65.379,155.556 65.979,155.333 66.667 C 155.110 67.354,154.876 67.955,154.811 68.001 C 154.747 68.048,154.526 68.573,154.321 69.168 C 154.116 69.763,153.856 70.400,153.743 70.583 C 153.630 70.767,153.369 71.442,153.163 72.083 C 152.957 72.725,152.725 73.332,152.646 73.432 C 152.567 73.532,152.352 74.088,152.167 74.667 C 151.982 75.246,151.766 75.801,151.687 75.901 C 151.608 76.001,151.448 76.383,151.331 76.750 C 151.214 77.117,150.945 77.799,150.732 78.267 C 150.520 78.735,150.223 79.485,150.072 79.934 C 149.921 80.383,149.633 81.125,149.430 81.583 C 149.228 82.042,148.958 82.754,148.830 83.167 C 148.702 83.579,148.548 83.954,148.487 84.000 C 148.426 84.046,148.178 84.677,147.935 85.403 C 147.692 86.129,147.429 86.804,147.350 86.903 C 147.271 87.002,147.035 87.571,146.825 88.167 C 146.615 88.763,146.382 89.332,146.307 89.432 C 146.231 89.532,146.018 90.088,145.833 90.667 C 145.648 91.246,145.433 91.801,145.355 91.901 C 145.278 92.001,145.010 92.683,144.760 93.416 C 144.510 94.149,144.247 94.824,144.175 94.916 C 144.103 95.008,143.890 95.533,143.702 96.083 C 143.514 96.633,143.242 97.308,143.098 97.583 C 142.953 97.858,142.835 98.205,142.834 98.354 C 142.832 99.029,142.288 100.040,141.472 100.887 C 140.983 101.394,139.946 102.505,139.167 103.356 C 138.387 104.207,137.084 105.619,136.270 106.494 C 133.259 109.727,132.720 110.308,131.333 111.808 C 130.554 112.651,129.429 113.852,128.833 114.476 C 128.237 115.101,127.112 116.315,126.333 117.175 C 125.554 118.035,124.385 119.303,123.736 119.994 C 123.086 120.685,122.190 121.649,121.744 122.136 C 120.907 123.052,120.057 123.951,118.230 125.860 C 117.645 126.470,117.167 127.051,117.167 127.151 C 117.167 127.465,163.600 127.401,166.852 127.082 C 170.004 126.774,171.815 126.499,171.931 126.310 C 171.980 126.231,172.204 126.167,172.430 126.167 C 172.925 126.167,176.348 125.346,176.583 125.170 C 176.675 125.102,177.294 124.884,177.958 124.685 C 178.623 124.486,179.167 124.251,179.167 124.162 C 179.167 124.073,179.273 124.000,179.403 124.000 C 179.694 124.000,181.211 123.360,181.330 123.186 C 181.378 123.117,181.726 122.939,182.105 122.790 C 182.784 122.523,184.680 121.386,185.167 120.955 C 185.304 120.834,185.642 120.592,185.917 120.419 C 186.631 119.970,189.272 117.268,189.582 116.670 C 189.725 116.393,189.902 116.167,189.976 116.167 C 190.049 116.167,190.290 115.773,190.511 115.292 C 190.732 114.810,190.959 114.379,191.015 114.333 C 191.071 114.287,191.285 113.763,191.490 113.167 C 191.694 112.571,191.922 112.008,191.996 111.917 C 192.070 111.825,192.341 111.150,192.597 110.417 C 192.853 109.683,193.122 109.043,193.194 108.993 C 193.266 108.943,193.478 108.425,193.664 107.841 C 193.851 107.258,194.068 106.699,194.148 106.599 C 194.228 106.499,194.465 105.929,194.675 105.333 C 194.885 104.737,195.112 104.175,195.180 104.083 C 195.466 103.699,196.000 102.043,196.000 101.542 L 196.000 101.000 189.768 101.000 L 183.535 101.000 184.031 99.460 C 184.303 98.613,184.586 97.844,184.660 97.752 C 184.734 97.659,184.971 97.021,185.186 96.333 C 185.402 95.646,185.619 95.046,185.670 95.000 C 185.758 94.920,186.159 93.819,187.190 90.833 C 187.459 90.054,187.819 89.117,187.991 88.750 C 188.163 88.383,188.356 87.821,188.418 87.500 C 188.481 87.179,188.630 86.763,188.749 86.574 C 188.868 86.386,189.164 85.602,189.407 84.832 C 189.651 84.061,189.912 83.353,189.988 83.257 C 190.063 83.162,190.299 82.521,190.511 81.833 C 190.723 81.146,190.950 80.546,191.014 80.500 C 191.079 80.454,191.302 79.854,191.509 79.167 C 191.716 78.479,191.939 77.879,192.005 77.833 C 192.070 77.787,192.332 77.075,192.587 76.250 C 192.842 75.425,193.100 74.712,193.160 74.667 C 193.221 74.621,193.444 74.021,193.656 73.333 C 193.868 72.646,194.105 72.003,194.184 71.904 C 194.262 71.805,194.486 71.205,194.681 70.570 C 194.875 69.936,195.094 69.342,195.166 69.250 C 195.238 69.158,195.497 68.449,195.740 67.674 C 195.984 66.899,196.246 66.186,196.322 66.091 C 196.398 65.995,196.637 65.354,196.853 64.667 C 197.069 63.979,197.292 63.379,197.349 63.333 C 197.406 63.288,197.658 62.650,197.909 61.917 C 198.161 61.183,198.584 59.946,198.851 59.167 C 199.118 58.387,199.453 57.503,199.596 57.202 C 199.738 56.900,199.970 56.263,200.111 55.785 C 200.252 55.307,200.426 54.842,200.497 54.750 C 200.568 54.658,200.841 53.908,201.104 53.083 C 201.366 52.258,201.629 51.546,201.688 51.500 C 201.748 51.454,201.956 50.897,202.151 50.263 C 202.347 49.628,202.570 49.028,202.647 48.930 C 202.724 48.831,202.955 48.188,203.161 47.500 C 203.366 46.813,203.588 46.212,203.655 46.167 C 203.721 46.121,203.987 45.408,204.246 44.583 C 204.505 43.758,204.764 43.046,204.822 43.000 C 204.880 42.954,205.110 42.317,205.333 41.583 C 205.557 40.850,205.789 40.212,205.851 40.167 C 205.912 40.121,206.123 39.564,206.318 38.930 C 206.514 38.295,206.740 37.695,206.820 37.596 C 206.901 37.497,207.175 36.742,207.429 35.917 C 207.683 35.092,207.943 34.379,208.006 34.333 C 208.069 34.287,208.296 33.688,208.509 33.000 C 208.722 32.313,208.946 31.712,209.007 31.667 C 209.068 31.621,209.290 31.021,209.500 30.333 C 209.710 29.646,209.937 29.046,210.005 29.000 C 210.073 28.954,210.336 28.223,210.590 27.375 L 211.052 25.833 217.100 25.833 L 223.149 25.833 222.961 26.375 C 222.857 26.673,222.674 27.016,222.553 27.137 C 222.432 27.258,222.333 27.467,222.333 27.602 C 222.333 27.737,222.099 28.348,221.813 28.960 C 221.527 29.572,221.189 30.368,221.061 30.730 C 220.933 31.092,220.764 31.469,220.684 31.569 C 220.604 31.669,220.338 32.311,220.093 32.996 C 219.847 33.682,219.587 34.282,219.515 34.330 C 219.442 34.378,219.215 34.904,219.011 35.499 C 218.807 36.094,218.585 36.619,218.520 36.665 C 218.253 36.854,217.707 38.634,217.787 39.053 L 217.872 39.500 234.019 39.500 C 249.892 39.500,250.167 39.494,250.167 39.177 C 250.167 38.999,250.226 38.816,250.298 38.772 C 250.371 38.727,250.650 37.991,250.919 37.137 C 251.189 36.282,251.451 35.546,251.502 35.500 C 251.553 35.454,251.777 34.817,252.000 34.083 C 252.223 33.350,252.454 32.712,252.512 32.667 C 252.570 32.621,252.789 32.021,252.998 31.333 C 253.206 30.646,253.434 30.008,253.504 29.917 C 253.574 29.825,253.829 29.113,254.071 28.333 C 254.314 27.554,254.614 26.692,254.739 26.417 C 254.864 26.142,255.103 25.467,255.270 24.917 C 255.437 24.367,255.618 23.879,255.672 23.833 C 255.770 23.750,256.388 21.822,256.594 20.958 C 256.654 20.706,256.760 20.500,256.829 20.500 C 256.899 20.500,257.085 20.031,257.243 19.458 C 257.401 18.885,257.669 18.117,257.838 17.750 C 258.007 17.383,258.293 16.633,258.475 16.083 C 259.180 13.943,259.842 12.067,260.061 11.586 C 260.187 11.310,260.426 10.615,260.593 10.042 C 260.760 9.469,260.957 9.000,261.032 9.000 C 261.106 9.000,261.167 8.900,261.167 8.778 C 261.167 8.469,261.796 6.506,262.058 6.000 C 262.176 5.771,262.453 4.983,262.673 4.250 C 262.893 3.517,263.120 2.879,263.177 2.833 C 263.306 2.731,264.000 0.529,264.000 0.222 C 264.000 0.038,253.420 0.000,201.430 0.000 L 138.861 0.000 138.406 1.375 M199.731 87.958 C 199.567 88.394,199.387 88.787,199.330 88.833 C 199.274 88.879,199.094 89.254,198.932 89.667 C 198.651 90.379,198.121 91.562,197.250 93.417 C 197.035 93.875,196.724 94.587,196.559 95.000 C 196.394 95.412,196.202 95.791,196.132 95.842 C 196.062 95.892,195.957 96.173,195.898 96.467 L 195.792 97.000 200.229 97.000 C 203.946 97.000,204.667 96.962,204.667 96.764 C 204.667 96.634,204.726 96.503,204.798 96.472 C 204.938 96.413,205.667 94.729,205.667 94.466 C 205.667 93.991,206.183 93.821,207.482 93.868 L 208.808 93.917 208.403 95.074 C 208.180 95.711,207.932 96.274,207.852 96.324 C 207.772 96.375,207.530 96.942,207.314 97.583 C 207.099 98.225,206.870 98.788,206.807 98.835 C 206.743 98.882,206.526 99.370,206.324 99.919 C 206.121 100.468,205.892 100.998,205.814 101.096 C 205.737 101.195,205.489 101.758,205.265 102.346 C 205.040 102.935,204.710 103.717,204.533 104.083 C 204.355 104.450,204.106 105.050,203.980 105.417 C 203.853 105.783,203.672 106.167,203.577 106.268 C 203.482 106.370,203.257 106.914,203.077 107.477 C 202.897 108.039,202.704 108.500,202.647 108.500 C 202.591 108.500,202.334 109.081,202.077 109.792 C 201.820 110.502,201.560 111.121,201.499 111.167 C 201.438 111.212,201.306 111.490,201.205 111.784 C 201.089 112.123,199.858 113.477,197.845 115.480 C 196.097 117.219,194.667 118.722,194.667 118.821 C 194.667 118.946,196.954 119.000,202.250 119.000 C 206.454 119.000,209.833 118.935,209.833 118.855 C 209.833 118.775,210.132 118.661,210.498 118.603 C 211.336 118.469,212.284 118.027,212.773 117.542 C 212.981 117.335,213.226 117.167,213.317 117.167 C 213.609 117.167,214.623 115.448,214.938 114.417 C 215.106 113.867,215.339 113.318,215.455 113.196 C 216.153 112.469,215.750 112.167,214.083 112.167 C 213.213 112.167,212.500 112.132,212.500 112.090 C 212.500 111.901,213.228 110.075,213.333 110.000 C 213.398 109.954,213.618 109.429,213.823 108.833 C 214.028 108.237,214.254 107.675,214.325 107.583 C 214.397 107.492,214.621 106.968,214.824 106.419 C 215.026 105.870,215.253 105.345,215.328 105.252 C 215.403 105.159,215.674 104.483,215.930 103.750 C 216.187 103.017,216.443 102.379,216.500 102.333 C 216.558 102.287,216.782 101.763,217.000 101.167 C 217.218 100.571,217.448 100.046,217.511 100.000 C 217.575 99.954,217.803 99.392,218.019 98.750 C 218.235 98.108,218.468 97.542,218.538 97.491 C 218.607 97.440,218.859 96.840,219.098 96.158 C 219.336 95.475,219.588 94.879,219.657 94.834 C 219.726 94.788,219.832 94.544,219.894 94.292 C 220.006 93.835,220.012 93.833,221.462 93.836 C 222.262 93.837,222.837 93.894,222.739 93.961 C 222.642 94.028,222.388 94.554,222.176 95.129 C 221.964 95.703,221.725 96.214,221.645 96.263 C 221.565 96.313,221.500 96.499,221.500 96.677 C 221.500 96.989,221.656 97.000,225.958 96.999 L 230.417 96.998 230.823 95.707 C 231.047 94.998,231.277 94.379,231.336 94.333 C 231.394 94.287,231.622 93.725,231.843 93.083 C 232.063 92.442,232.290 91.879,232.347 91.833 C 232.404 91.787,232.660 91.112,232.917 90.333 C 233.173 89.554,233.435 88.879,233.498 88.833 C 233.640 88.730,234.000 87.697,234.000 87.392 C 234.000 87.204,231.168 87.167,217.014 87.167 L 200.028 87.167 199.731 87.958 M364.233 91.375 C 363.852 95.547,363.829 95.417,365.068 96.070 C 366.157 96.644,367.533 97.432,367.758 97.611 C 367.855 97.687,368.080 97.832,368.258 97.932 C 368.437 98.033,368.771 98.220,369.000 98.349 C 369.229 98.478,369.454 98.629,369.500 98.685 C 369.546 98.741,369.823 98.910,370.116 99.060 C 370.410 99.210,370.983 99.558,371.391 99.833 C 371.798 100.108,372.196 100.335,372.274 100.338 C 372.353 100.341,372.865 100.641,373.413 101.005 C 373.961 101.369,374.505 101.667,374.621 101.667 C 374.738 101.667,374.833 101.738,374.833 101.825 C 374.833 101.911,375.217 102.175,375.685 102.410 C 376.153 102.646,376.726 102.987,376.957 103.169 C 377.189 103.351,377.467 103.500,377.574 103.500 C 377.682 103.500,377.916 103.631,378.094 103.792 C 378.271 103.952,378.630 104.193,378.891 104.328 L 379.364 104.573 378.974 104.740 C 378.759 104.832,378.546 104.950,378.500 105.002 C 378.454 105.054,376.635 105.988,374.458 107.078 C 372.281 108.167,370.500 109.121,370.500 109.196 C 370.500 109.272,370.420 109.333,370.321 109.333 C 370.113 109.333,366.290 111.167,366.167 111.327 C 366.121 111.386,365.671 111.608,365.167 111.821 C 364.662 112.034,364.212 112.255,364.167 112.313 C 364.121 112.370,363.483 112.720,362.750 113.091 L 361.417 113.764 361.136 116.674 C 360.696 121.236,360.753 121.874,361.530 121.120 C 361.752 120.904,362.971 120.233,364.667 119.393 C 365.171 119.143,365.666 118.856,365.767 118.756 C 365.868 118.655,366.281 118.427,366.684 118.249 C 367.087 118.071,367.454 117.875,367.500 117.812 C 367.546 117.750,368.071 117.444,368.667 117.132 C 371.138 115.839,373.089 114.776,373.167 114.681 C 373.212 114.625,373.700 114.363,374.250 114.100 C 374.800 113.836,375.287 113.575,375.333 113.518 C 375.379 113.462,375.792 113.235,376.250 113.013 C 376.708 112.792,377.121 112.561,377.167 112.502 C 377.212 112.442,377.625 112.217,378.083 112.000 C 378.542 111.783,378.954 111.558,379.000 111.500 C 379.046 111.442,379.908 110.955,380.917 110.420 C 381.925 109.884,382.787 109.396,382.833 109.335 C 382.879 109.275,383.277 109.081,383.717 108.904 C 384.158 108.728,384.645 108.470,384.801 108.331 C 384.956 108.192,385.421 107.935,385.833 107.759 C 386.246 107.584,386.658 107.352,386.750 107.246 C 386.842 107.139,387.289 106.887,387.744 106.686 C 388.199 106.485,388.612 106.264,388.661 106.195 C 388.710 106.126,389.200 105.847,389.750 105.577 C 391.434 104.747,391.481 104.622,390.375 103.900 C 389.939 103.615,389.366 103.240,389.100 103.066 C 388.835 102.892,388.298 102.563,387.907 102.333 C 387.517 102.104,387.059 101.794,386.890 101.645 C 386.721 101.496,386.321 101.242,386.000 101.080 C 385.679 100.919,385.379 100.732,385.333 100.664 C 385.287 100.597,384.988 100.401,384.667 100.229 C 384.346 100.057,383.896 99.781,383.667 99.616 C 382.766 98.965,380.954 97.841,380.652 97.745 C 380.477 97.690,380.333 97.580,380.333 97.500 C 380.333 97.421,379.981 97.183,379.551 96.970 C 379.120 96.757,378.584 96.415,378.360 96.208 C 378.135 96.002,377.873 95.833,377.778 95.833 C 377.683 95.833,377.450 95.694,377.261 95.524 C 377.072 95.354,376.582 95.035,376.174 94.816 C 375.765 94.596,375.297 94.285,375.132 94.125 C 374.968 93.965,374.740 93.832,374.625 93.831 C 374.510 93.830,374.229 93.677,374.000 93.492 C 373.514 93.098,371.993 92.094,371.198 91.642 C 370.895 91.469,370.557 91.249,370.448 91.153 C 370.110 90.856,367.942 89.503,367.458 89.289 C 367.206 89.177,367.000 89.030,367.000 88.963 C 367.000 88.895,366.681 88.679,366.292 88.482 C 365.902 88.285,365.523 88.021,365.450 87.895 C 365.377 87.769,365.149 87.667,364.944 87.667 C 364.579 87.667,364.564 87.748,364.233 91.375 M354.667 88.905 C 354.667 89.036,354.551 89.258,354.410 89.400 C 354.268 89.541,353.956 90.090,353.716 90.620 C 353.475 91.150,353.225 91.621,353.160 91.667 C 353.095 91.712,352.868 92.162,352.655 92.667 C 352.442 93.171,352.222 93.621,352.166 93.667 C 352.013 93.792,350.776 96.143,350.411 97.000 C 350.236 97.412,350.043 97.787,349.982 97.833 C 349.886 97.905,347.980 101.524,346.471 104.500 C 346.215 105.004,345.946 105.492,345.873 105.583 C 345.799 105.675,345.563 106.162,345.349 106.667 C 345.134 107.171,344.903 107.621,344.835 107.667 C 344.767 107.712,344.501 108.200,344.245 108.750 C 343.988 109.300,343.730 109.787,343.672 109.833 C 343.613 109.879,343.392 110.329,343.179 110.833 C 342.966 111.337,342.738 111.787,342.674 111.833 C 342.609 111.879,342.346 112.367,342.089 112.917 C 341.832 113.467,341.575 113.954,341.518 114.000 C 341.460 114.046,341.227 114.496,341.000 115.000 C 340.773 115.504,340.540 115.954,340.482 116.000 C 340.424 116.046,340.184 116.508,339.948 117.026 C 339.712 117.544,339.452 118.010,339.371 118.060 C 339.289 118.110,339.043 118.605,338.823 119.159 C 338.603 119.713,338.365 120.167,338.295 120.167 C 338.224 120.167,338.167 120.279,338.167 120.417 C 338.167 120.632,338.735 120.666,342.292 120.664 L 346.417 120.662 346.913 119.789 C 347.187 119.309,347.519 118.654,347.652 118.333 C 347.785 118.013,347.947 117.712,348.013 117.667 C 348.079 117.621,348.334 117.171,348.578 116.667 C 348.823 116.162,349.507 114.850,350.099 113.750 C 350.692 112.650,351.405 111.270,351.684 110.684 C 351.964 110.097,352.292 109.517,352.415 109.395 C 352.537 109.273,352.766 108.834,352.924 108.420 C 353.083 108.006,353.267 107.667,353.333 107.667 C 353.400 107.667,353.588 107.310,353.750 106.875 C 353.913 106.440,354.144 105.969,354.265 105.829 C 354.386 105.689,354.689 105.127,354.939 104.581 C 355.189 104.035,355.461 103.512,355.543 103.419 C 355.624 103.326,355.892 102.854,356.137 102.371 C 357.816 99.060,358.598 97.572,358.698 97.497 C 358.761 97.449,358.972 97.038,359.167 96.583 C 359.362 96.129,359.574 95.718,359.638 95.670 C 359.703 95.622,360.202 94.683,360.747 93.583 C 361.293 92.483,361.785 91.546,361.842 91.500 C 361.898 91.454,362.145 90.990,362.389 90.468 C 362.634 89.946,362.909 89.473,363.000 89.416 C 363.092 89.360,363.167 89.168,363.167 88.990 C 363.167 88.678,363.012 88.667,358.917 88.667 C 355.344 88.667,354.667 88.705,354.667 88.905 M292.208 99.451 C 292.002 99.491,291.833 99.577,291.833 99.642 C 291.833 99.707,291.484 99.864,291.057 99.990 C 290.630 100.116,290.159 100.338,290.010 100.484 C 289.862 100.630,289.531 100.859,289.275 100.993 C 288.252 101.527,287.527 102.665,286.830 104.833 C 286.609 105.521,286.378 106.121,286.316 106.167 C 286.255 106.212,286.044 106.769,285.849 107.404 C 285.653 108.038,285.430 108.638,285.352 108.737 C 285.274 108.836,285.039 109.442,284.830 110.083 C 284.620 110.725,284.360 111.400,284.252 111.583 C 284.144 111.767,283.876 112.517,283.656 113.250 C 283.437 113.983,283.162 114.682,283.045 114.804 C 282.731 115.130,282.788 115.833,283.162 116.232 C 283.343 116.425,283.940 117.056,284.490 117.633 L 285.489 118.682 293.120 118.632 C 300.922 118.581,302.072 118.483,302.500 117.835 C 302.546 117.765,302.857 117.563,303.191 117.385 C 304.448 116.714,305.365 115.364,306.187 112.972 C 306.386 112.392,306.602 111.879,306.667 111.833 C 306.731 111.787,306.918 111.337,307.082 110.833 C 307.245 110.329,307.509 109.654,307.668 109.333 C 307.827 109.013,308.127 108.244,308.335 107.625 C 308.542 107.006,308.760 106.500,308.819 106.500 C 308.879 106.500,309.030 106.144,309.156 105.708 C 309.282 105.273,309.598 104.459,309.859 103.901 C 310.311 102.932,310.481 102.000,310.204 102.000 C 310.133 102.000,309.665 101.583,309.163 101.072 C 308.661 100.562,308.063 99.962,307.835 99.739 L 307.420 99.333 300.002 99.356 C 295.922 99.369,292.415 99.411,292.208 99.451 M233.075 99.645 C 232.988 99.725,232.373 99.952,231.708 100.150 C 231.044 100.348,230.500 100.582,230.500 100.671 C 230.500 100.760,230.396 100.833,230.268 100.833 C 229.934 100.833,228.372 102.281,228.236 102.716 C 228.173 102.918,228.068 103.121,228.002 103.167 C 227.937 103.212,227.711 103.775,227.500 104.417 C 227.289 105.058,227.069 105.621,227.011 105.667 C 226.953 105.712,226.723 106.313,226.500 107.000 C 226.277 107.688,226.044 108.287,225.982 108.333 C 225.919 108.379,225.664 109.092,225.413 109.917 C 225.163 110.742,224.901 111.454,224.831 111.500 C 224.761 111.546,224.552 112.071,224.366 112.667 C 224.179 113.263,223.904 113.991,223.754 114.287 C 223.067 115.636,223.139 115.864,224.769 117.501 L 226.250 118.990 233.458 118.995 C 238.156 118.998,240.667 118.942,240.667 118.833 C 240.667 118.742,240.782 118.667,240.922 118.667 C 241.417 118.667,243.199 117.983,243.545 117.660 C 243.738 117.480,243.976 117.334,244.073 117.334 C 244.427 117.336,245.640 115.773,245.841 115.055 C 245.954 114.653,246.105 114.288,246.177 114.244 C 246.248 114.199,246.474 113.658,246.678 113.040 C 246.883 112.422,247.105 111.879,247.172 111.833 C 247.240 111.787,247.505 111.150,247.762 110.417 C 248.019 109.683,248.279 109.046,248.340 109.000 C 248.401 108.954,248.618 108.429,248.823 107.833 C 249.028 107.237,249.255 106.675,249.327 106.583 C 249.400 106.492,249.634 105.934,249.846 105.345 C 250.059 104.755,250.368 104.008,250.533 103.685 C 251.020 102.730,250.933 102.532,249.336 100.967 L 247.839 99.500 240.536 99.500 C 236.520 99.500,233.162 99.565,233.075 99.645 M252.833 99.765 C 252.833 100.023,253.608 101.132,254.542 102.211 C 254.794 102.503,255.001 102.818,255.003 102.912 C 255.004 103.006,255.228 103.336,255.501 103.645 C 256.017 104.231,256.037 104.649,255.584 105.417 C 255.476 105.600,255.209 106.313,254.991 107.000 C 254.773 107.688,254.544 108.287,254.481 108.333 C 254.419 108.379,254.203 108.960,254.001 109.625 C 253.799 110.290,253.585 110.833,253.524 110.833 C 253.464 110.833,253.230 111.462,253.006 112.230 C 252.685 113.325,252.497 113.695,252.132 113.939 C 251.877 114.110,251.667 114.344,251.667 114.458 C 251.667 114.573,251.571 114.667,251.454 114.667 C 251.187 114.667,247.333 118.535,247.333 118.803 C 247.333 118.951,248.884 119.000,253.583 119.000 C 257.021 119.000,259.833 118.941,259.833 118.870 C 259.833 118.798,260.183 118.636,260.609 118.510 C 261.036 118.384,261.506 118.161,261.653 118.013 C 261.801 117.866,262.164 117.573,262.461 117.361 C 262.757 117.150,263.000 116.899,263.000 116.804 C 263.000 116.709,263.179 116.490,263.398 116.318 C 263.617 116.146,263.848 115.799,263.911 115.546 C 263.975 115.293,264.084 115.048,264.155 115.002 C 264.291 114.912,265.000 112.951,265.000 112.666 C 265.000 112.569,264.413 112.500,263.583 112.500 C 262.804 112.500,262.167 112.459,262.167 112.409 C 262.167 112.178,263.061 109.574,263.166 109.500 C 263.231 109.454,263.457 108.892,263.668 108.250 C 263.879 107.608,264.142 106.933,264.252 106.750 C 264.362 106.567,264.632 105.836,264.851 105.126 L 265.250 103.835 268.053 103.834 L 270.856 103.833 270.739 104.208 C 270.674 104.415,270.568 104.621,270.502 104.667 C 270.437 104.712,270.210 105.275,269.999 105.917 C 269.788 106.558,269.521 107.233,269.405 107.417 C 269.290 107.600,269.076 108.157,268.931 108.653 C 268.786 109.150,268.567 109.713,268.443 109.903 C 268.319 110.094,268.045 110.775,267.834 111.417 C 267.623 112.058,267.398 112.621,267.333 112.667 C 267.269 112.712,267.043 113.274,266.831 113.915 C 266.620 114.555,266.283 115.418,266.084 115.831 C 265.884 116.245,265.618 116.921,265.492 117.333 C 265.367 117.746,265.212 118.121,265.149 118.167 C 265.085 118.212,265.007 118.400,264.975 118.583 C 264.911 118.952,273.493 119.203,274.250 118.855 C 274.433 118.771,274.949 118.572,275.395 118.413 C 275.841 118.254,276.327 117.983,276.474 117.812 C 276.621 117.640,276.827 117.500,276.932 117.500 C 277.146 117.500,278.667 115.859,278.667 115.628 C 278.667 115.546,278.847 115.090,279.068 114.615 C 279.288 114.139,279.519 113.506,279.581 113.208 L 279.693 112.667 278.180 112.667 C 276.579 112.667,276.431 112.580,276.895 111.912 C 277.021 111.731,277.301 111.021,277.518 110.333 C 277.734 109.646,277.958 109.046,278.014 109.000 C 278.071 108.954,278.288 108.392,278.497 107.750 C 278.707 107.108,278.933 106.508,279.000 106.417 C 279.067 106.325,279.331 105.612,279.586 104.833 C 279.841 104.054,280.113 103.392,280.191 103.361 C 280.733 103.149,280.064 102.099,278.132 100.130 L 277.513 99.500 265.173 99.500 C 253.997 99.500,252.833 99.525,252.833 99.765 M312.500 99.727 C 312.500 99.852,313.287 100.764,314.250 101.754 C 315.319 102.854,316.002 103.689,316.005 103.902 C 316.018 104.793,315.119 114.455,314.996 114.750 C 314.919 114.933,314.784 115.919,314.695 116.940 L 314.534 118.797 313.058 120.337 C 312.247 121.183,311.101 122.372,310.511 122.980 C 308.459 125.093,307.167 126.521,307.167 126.677 C 307.167 127.128,319.832 126.809,320.167 126.348 C 320.212 126.285,320.606 126.082,321.042 125.897 C 322.062 125.463,322.948 124.751,323.282 124.099 C 323.428 123.816,323.600 123.546,323.665 123.500 C 323.876 123.352,324.518 121.454,324.432 121.231 C 324.377 121.086,323.929 120.998,323.079 120.965 L 321.808 120.917 322.571 120.087 C 322.990 119.631,323.333 119.201,323.333 119.133 C 323.333 119.064,323.596 118.769,323.917 118.477 C 324.237 118.185,324.500 117.896,324.500 117.833 C 324.500 117.771,324.911 117.277,325.414 116.735 C 325.917 116.193,326.329 115.696,326.331 115.631 C 326.332 115.565,326.540 115.292,326.792 115.023 C 327.254 114.531,327.894 113.781,329.161 112.250 C 329.541 111.792,330.067 111.168,330.330 110.863 C 330.781 110.342,331.029 110.055,332.250 108.636 C 332.525 108.317,333.012 107.735,333.333 107.343 C 333.654 106.950,334.091 106.432,334.304 106.190 C 334.517 105.948,334.817 105.563,334.970 105.333 C 335.123 105.104,335.417 104.780,335.624 104.613 C 335.831 104.446,336.000 104.245,336.000 104.166 C 336.000 104.088,336.450 103.551,337.000 102.973 C 337.550 102.395,338.000 101.867,338.000 101.800 C 338.000 101.733,338.206 101.462,338.458 101.198 C 339.237 100.383,339.667 99.838,339.667 99.665 C 339.667 99.560,337.806 99.500,334.498 99.500 L 329.329 99.500 328.836 100.042 C 328.565 100.340,328.341 100.641,328.338 100.711 C 328.336 100.781,328.015 101.240,327.625 101.732 C 326.371 103.316,326.086 103.709,325.964 104.024 C 325.898 104.194,325.769 104.333,325.676 104.333 C 325.584 104.333,325.396 104.551,325.258 104.818 C 325.120 105.084,324.883 105.427,324.730 105.580 C 324.361 105.948,323.667 106.978,323.667 107.156 C 323.667 107.234,323.545 107.345,323.395 107.402 C 323.169 107.488,323.141 107.421,323.225 107.001 C 323.280 106.723,323.376 105.896,323.437 105.164 C 323.498 104.432,323.599 103.833,323.661 103.833 C 323.774 103.833,324.169 100.812,324.168 99.958 L 324.167 99.500 318.333 99.500 C 313.519 99.500,312.500 99.540,312.500 99.727 M241.500 103.760 C 241.500 103.992,240.930 105.592,240.821 105.667 C 240.754 105.712,240.506 106.415,240.270 107.228 C 240.035 108.040,239.774 108.790,239.692 108.894 C 239.609 108.998,239.368 109.646,239.156 110.333 C 238.944 111.021,238.719 111.621,238.656 111.667 C 238.594 111.712,238.368 112.331,238.156 113.042 L 237.770 114.333 235.400 114.333 L 233.031 114.333 233.217 113.708 C 233.320 113.365,233.451 113.046,233.510 113.000 C 233.569 112.954,233.790 112.392,234.001 111.750 C 234.212 111.108,234.477 110.433,234.589 110.250 C 234.702 110.067,234.929 109.467,235.095 108.917 C 235.260 108.367,235.447 107.879,235.510 107.833 C 235.572 107.787,235.836 107.075,236.097 106.250 C 236.357 105.425,236.667 104.651,236.785 104.530 C 236.903 104.409,237.000 104.165,237.000 103.988 C 237.000 103.687,237.139 103.667,239.250 103.667 C 240.487 103.667,241.500 103.709,241.500 103.760 M301.000 103.757 C 301.000 103.980,300.273 106.103,300.137 106.276 C 300.054 106.382,299.842 106.970,299.667 107.583 C 299.491 108.197,299.278 108.785,299.193 108.891 C 299.109 108.997,298.832 109.758,298.578 110.583 C 298.324 111.408,298.065 112.121,298.002 112.167 C 297.939 112.212,297.749 112.719,297.579 113.292 L 297.270 114.333 294.875 114.333 C 293.558 114.333,292.510 114.277,292.546 114.208 C 292.838 113.651,293.307 112.493,293.406 112.086 C 293.472 111.812,293.696 111.212,293.904 110.753 C 294.113 110.293,294.421 109.467,294.589 108.917 C 294.758 108.367,294.948 107.879,295.013 107.833 C 295.077 107.787,295.282 107.263,295.469 106.667 C 295.656 106.071,295.965 105.268,296.155 104.883 C 296.345 104.498,296.500 104.067,296.500 103.925 C 296.500 103.705,296.830 103.667,298.750 103.667 C 299.987 103.667,301.000 103.707,301.000 103.757 " stroke="none" fill="#2cac64" fill-rule="evenodd"></path></g></svg>